<svg width="26" height="26" viewBox="0 0 26 26" fill="none" xmlns="http://www.w3.org/2000/svg">
<rect width="24.2197" height="24.2197" transform="translate(0.890137 0.890137)" fill="#6E46E6"/>
<path d="M3.70142 12.7891C3.72845 11.6079 3.97173 10.4617 4.42855 9.38321C4.89618 8.27495 5.56655 7.28291 6.42073 6.42603C7.2749 5.56915 8.26964 4.89879 9.37791 4.43115C10.524 3.9473 11.7404 3.70132 12.9973 3.70132C14.2543 3.70132 15.4707 3.9473 16.6141 4.43115C17.7192 4.89783 18.7227 5.57542 19.5686 6.42603C19.8362 6.69364 20.0875 6.97747 20.32 7.27481L18.6928 8.54526C18.6606 8.57016 18.636 8.60365 18.622 8.64187C18.608 8.68009 18.6051 8.72149 18.6136 8.7613C18.622 8.80112 18.6416 8.83773 18.6699 8.86694C18.6983 8.89614 18.7343 8.91675 18.7738 8.92639L23.5232 10.0887C23.6583 10.1212 23.7908 10.0184 23.7908 9.88058L23.8124 4.99069C23.8124 4.80959 23.6043 4.70687 23.4637 4.8204L21.9392 6.01246C19.8605 3.35262 16.6276 1.64697 12.9946 1.64697C6.80186 1.64697 1.7633 6.60984 1.64707 12.7783C1.64635 12.8071 1.65141 12.8358 1.66195 12.8627C1.6725 12.8896 1.68831 12.9141 1.70846 12.9347C1.72862 12.9554 1.7527 12.9718 1.7793 12.983C1.80589 12.9942 1.83446 13 1.86332 12.9999H3.48517C3.60411 12.9999 3.69872 12.9053 3.70142 12.7891ZM24.1368 12.9999H22.5149C22.396 12.9999 22.3014 13.0946 22.2987 13.2108C22.2716 14.392 22.0284 15.5381 21.5715 16.6167C21.1039 17.7249 20.4335 18.7197 19.5794 19.5739C18.7172 20.4396 17.6922 21.126 16.5635 21.5937C15.4347 22.0613 14.2245 22.3009 13.0027 22.2986C11.7814 22.3009 10.5716 22.0613 9.44332 21.5936C8.31501 21.126 7.29048 20.4395 6.42884 19.5739C6.16123 19.3063 5.90984 19.0224 5.67738 18.7251L7.30464 17.4546C7.33683 17.4297 7.36135 17.3962 7.37536 17.358C7.38937 17.3198 7.39231 17.2784 7.38383 17.2386C7.37536 17.1988 7.35583 17.1622 7.32747 17.133C7.29911 17.1038 7.26309 17.0831 7.22354 17.0735L2.47422 15.9112C2.33906 15.8787 2.20661 15.9815 2.20661 16.1193L2.18769 21.0119C2.18769 21.193 2.39583 21.2957 2.53639 21.1822L4.06093 19.9901C6.13961 22.6473 9.3725 24.3529 13.0055 24.3529C19.2009 24.3529 24.2368 19.3873 24.353 13.2216C24.3537 13.1928 24.3487 13.164 24.3381 13.1372C24.3276 13.1103 24.3118 13.0858 24.2916 13.0652C24.2715 13.0445 24.2474 13.0281 24.2208 13.0169C24.1942 13.0057 24.1656 12.9999 24.1368 12.9999Z" fill="white"/>
</svg>
